<?xml version="1.0" encoding="utf-8"?>
<!-- Generator: Adobe Illustrator 26.1.0, SVG Export Plug-In . SVG Version: 6.00 Build 0)  -->
<svg version="1.1" id="Layer_1" xmlns="http://www.w3.org/2000/svg" xmlns:xlink="http://www.w3.org/1999/xlink" x="0px" y="0px"
	 viewBox="0 0 816 80" style="enable-background:new 0 0 816 80;" xml:space="preserve">
<style type="text/css">
	.st0{fill:#808080;}
	.st1{fill:#93278F;}
</style>
<g>
	<g>
		<path class="st0" d="M106.15,57.13V28.57h2.38v7.3h-0.41c0.31-1.27,0.75-2.39,1.33-3.36c0.58-0.96,1.25-1.77,2.03-2.4
			s1.64-1.11,2.61-1.42c0.96-0.31,1.99-0.46,3.07-0.46c1.66,0,3.11,0.31,4.34,0.93c1.24,0.62,2.25,1.57,3.04,2.87
			c0.79,1.29,1.32,2.95,1.59,4.95l-1.22,0.06c0.46-1.89,1.13-3.49,2-4.81c0.87-1.31,1.95-2.31,3.24-2.98
			c1.29-0.68,2.79-1.01,4.49-1.01c2.28,0,4.08,0.52,5.42,1.56c1.33,1.04,2.31,2.48,2.93,4.32c0.62,1.83,0.93,3.93,0.93,6.29v16.74
			h-2.43V40.91c0-2.12-0.23-3.98-0.7-5.56c-0.46-1.58-1.23-2.82-2.29-3.71c-1.06-0.89-2.52-1.33-4.37-1.33c-1.47,0-2.8,0.41-4,1.22
			c-1.2,0.81-2.15,2.06-2.87,3.74c-0.72,1.68-1.07,3.79-1.07,6.34v15.53h-2.38v-16.8c0-3.44-0.62-5.97-1.85-7.59
			c-1.24-1.62-3.05-2.43-5.45-2.43c-1.47,0-2.8,0.43-4,1.27c-1.2,0.85-2.15,2.16-2.87,3.94c-0.72,1.78-1.07,4.08-1.07,6.89v14.71
			H106.15z"/>
		<path class="st0" d="M155.1,68.89l5.04-12.28l-11.53-28.04h2.72l10.08,25.55l10.08-25.55h2.72l-16.51,40.32H155.1z"/>
		<path class="st0" d="M203.76,57.48c-1.93,0-3.66-0.37-5.18-1.1c-1.53-0.73-2.83-1.76-3.91-3.07c-1.08-1.31-1.91-2.87-2.49-4.66
			c-0.58-1.8-0.87-3.74-0.87-5.82c0-2.09,0.29-4.02,0.87-5.79c0.58-1.78,1.41-3.32,2.49-4.63c1.08-1.31,2.38-2.34,3.91-3.07
			c1.53-0.73,3.25-1.1,5.18-1.1c2.51,0,4.72,0.63,6.63,1.88c1.91,1.26,3.31,3.14,4.2,5.65l-2.2,0.87c-0.66-2.05-1.74-3.61-3.24-4.69
			c-1.51-1.08-3.3-1.62-5.39-1.62c-2.24,0-4.11,0.59-5.62,1.77c-1.51,1.18-2.62,2.71-3.33,4.61c-0.71,1.89-1.07,3.94-1.07,6.14
			c0,2.2,0.36,4.26,1.07,6.17c0.71,1.91,1.83,3.45,3.33,4.61c1.51,1.16,3.38,1.74,5.62,1.74c2.09,0,3.88-0.53,5.39-1.59
			c1.51-1.06,2.59-2.62,3.24-4.66l2.2,0.87c-0.89,2.47-2.27,4.34-4.14,5.62C208.58,56.84,206.35,57.48,203.76,57.48z"/>
		<path class="st0" d="M232.73,57.48c-2.59,0-4.89-0.62-6.89-1.85c-2.01-1.24-3.59-2.96-4.75-5.19c-1.16-2.22-1.74-4.76-1.74-7.62
			c0-2.86,0.57-5.39,1.71-7.59c1.14-2.2,2.71-3.92,4.72-5.16c2.01-1.24,4.33-1.85,6.95-1.85c2.63,0,4.94,0.62,6.95,1.85
			c2.01,1.24,3.57,2.95,4.69,5.16c1.12,2.2,1.68,4.73,1.68,7.59c0,2.86-0.57,5.39-1.71,7.59c-1.14,2.2-2.7,3.93-4.69,5.19
			C237.66,56.85,235.36,57.48,232.73,57.48z M232.73,55.34c2.2,0,4.11-0.53,5.74-1.59c1.62-1.06,2.9-2.53,3.82-4.4
			c0.93-1.87,1.39-4.05,1.39-6.52c0-2.47-0.46-4.64-1.39-6.52c-0.93-1.87-2.21-3.33-3.85-4.37c-1.64-1.04-3.54-1.56-5.71-1.56
			c-2.2,0-4.12,0.52-5.76,1.56c-1.64,1.04-2.92,2.5-3.82,4.37c-0.91,1.87-1.36,4.05-1.36,6.52c0,2.47,0.45,4.64,1.36,6.52
			c0.91,1.87,2.18,3.34,3.82,4.4C228.61,54.81,230.53,55.34,232.73,55.34z"/>
		<path class="st0" d="M252.66,57.13V28.57h2.38v7.18l-0.52,0.17c0.46-1.7,1.15-3.12,2.06-4.26c0.91-1.14,2.02-2,3.33-2.58
			c1.31-0.58,2.76-0.87,4.34-0.87c3.01,0,5.38,0.92,7.1,2.75c1.72,1.83,2.58,4.72,2.58,8.66v17.5h-2.43V40.39
			c0-3.44-0.65-5.98-1.94-7.62c-1.29-1.64-3.21-2.46-5.76-2.46c-1.7,0-3.2,0.43-4.49,1.3c-1.29,0.87-2.33,2.24-3.1,4.11
			c-0.77,1.87-1.16,4.32-1.16,7.33v14.08H252.66z"/>
		<path class="st0" d="M282.32,57.13V30.48h-5.1v-1.91h5.1v-2.49c0-2.32,0.41-4.18,1.22-5.59c0.81-1.41,1.92-2.44,3.33-3.1
			c1.41-0.66,2.96-0.98,4.66-0.98c1.54,0,2.93,0.22,4.17,0.67c1.24,0.44,2.39,1.07,3.48,1.88l-1.16,1.62
			c-0.89-0.7-1.87-1.24-2.96-1.62c-1.08-0.39-2.22-0.58-3.42-0.58c-2.16,0-3.86,0.59-5.1,1.77c-1.24,1.18-1.85,3.22-1.85,6.11v2.32
			h12.92v1.91H284.7v26.65H282.32z M296.86,57.13V28.57h2.38v28.56H296.86z"/>
		<path class="st0" d="M317.83,69.36c-3.98,0-7.13-0.74-9.44-2.23c-2.32-1.49-3.48-3.58-3.48-6.29c0-0.15,0.01-0.37,0.03-0.64
			c0.02-0.27,0.05-0.54,0.09-0.81l6.14-5.27l1.1,0.58l-4.87,5.27c-0.04,0.15-0.06,0.31-0.06,0.46c0,0.15,0,0.33,0,0.52
			c0,2.09,0.95,3.69,2.84,4.81c1.89,1.12,4.44,1.68,7.65,1.68c2.55,0,4.67-0.44,6.37-1.33c1.7-0.89,2.55-2.26,2.55-4.11
			c0-1.08-0.3-1.95-0.9-2.61c-0.6-0.66-1.43-1.18-2.49-1.56c-1.06-0.39-2.25-0.7-3.56-0.93c-1.31-0.23-2.7-0.44-4.17-0.64
			c-1.74-0.27-3.35-0.64-4.84-1.1s-2.68-1.13-3.59-2c-0.91-0.87-1.36-2.04-1.36-3.5c0-1.27,0.4-2.39,1.19-3.36
			c0.79-0.96,1.92-1.78,3.39-2.43l1.39,1.22c-1.27,0.43-2.19,0.99-2.75,1.71c-0.56,0.71-0.84,1.56-0.84,2.52
			c0,1.08,0.33,1.92,0.98,2.52c0.66,0.6,1.55,1.05,2.69,1.36c1.14,0.31,2.44,0.6,3.91,0.87c1.66,0.27,3.28,0.54,4.87,0.81
			c1.58,0.27,3.01,0.67,4.29,1.19s2.28,1.24,3.01,2.14c0.73,0.91,1.1,2.08,1.1,3.5c0,2.47-1.02,4.36-3.07,5.68
			C323.95,68.7,321.23,69.36,317.83,69.36z M316.96,47.23c-2.05,0-3.84-0.41-5.39-1.22s-2.76-1.92-3.65-3.33
			c-0.89-1.41-1.33-3.02-1.33-4.84c0-1.89,0.44-3.56,1.33-5.01c0.89-1.45,2.11-2.58,3.68-3.39s3.33-1.22,5.3-1.22
			c1.93,0,3.65,0.41,5.16,1.22c1.51,0.81,2.7,1.94,3.59,3.39c0.89,1.45,1.33,3.14,1.33,5.07c0,1.85-0.43,3.49-1.27,4.9
			c-0.85,1.41-2.03,2.5-3.53,3.27C320.67,46.84,318.93,47.23,316.96,47.23z M316.85,45.2c2.36,0,4.25-0.7,5.68-2.11
			c1.43-1.41,2.14-3.18,2.14-5.3c0-2.24-0.72-4.06-2.17-5.47c-1.45-1.41-3.31-2.11-5.59-2.11c-2.32,0-4.22,0.72-5.71,2.14
			c-1.49,1.43-2.23,3.23-2.23,5.39c0,2.16,0.72,3.95,2.17,5.36C312.59,44.5,314.49,45.2,316.85,45.2z M325.25,33.15l-1.68-1.22
			l5.33-4.75l1.22,1.56L325.25,33.15z"/>
		<path class="st0" d="M350.04,57.13V30.48h-6.72v-1.91h6.72v-4.46c0-1.85,0.29-3.34,0.87-4.46c0.58-1.12,1.4-1.94,2.46-2.46
			s2.31-0.78,3.74-0.78c0.85,0,1.64,0.09,2.38,0.26c0.73,0.17,1.43,0.43,2.09,0.78l-0.81,1.8c-0.5-0.23-1.03-0.41-1.59-0.55
			c-0.56-0.13-1.19-0.2-1.88-0.2c-1.55,0-2.73,0.46-3.56,1.39c-0.83,0.93-1.25,2.34-1.25,4.23v4.46h7.24v1.91h-7.24v26.65H350.04z"
			/>
		<path class="st0" d="M376.57,57.48c-2.59,0-4.89-0.62-6.89-1.85c-2.01-1.24-3.59-2.96-4.75-5.19c-1.16-2.22-1.74-4.76-1.74-7.62
			c0-2.86,0.57-5.39,1.71-7.59c1.14-2.2,2.71-3.92,4.72-5.16c2.01-1.24,4.33-1.85,6.95-1.85c2.63,0,4.94,0.62,6.95,1.85
			c2.01,1.24,3.57,2.95,4.69,5.16c1.12,2.2,1.68,4.73,1.68,7.59c0,2.86-0.57,5.39-1.71,7.59c-1.14,2.2-2.7,3.93-4.69,5.19
			C381.51,56.85,379.2,57.48,376.57,57.48z M376.57,55.34c2.2,0,4.11-0.53,5.74-1.59c1.62-1.06,2.9-2.53,3.82-4.4
			c0.93-1.87,1.39-4.05,1.39-6.52c0-2.47-0.46-4.64-1.39-6.52c-0.93-1.87-2.21-3.33-3.85-4.37c-1.64-1.04-3.54-1.56-5.71-1.56
			c-2.2,0-4.12,0.52-5.76,1.56c-1.64,1.04-2.92,2.5-3.82,4.37c-0.91,1.87-1.36,4.05-1.36,6.52c0,2.47,0.45,4.64,1.36,6.52
			c0.91,1.87,2.18,3.34,3.82,4.4C372.45,54.81,374.37,55.34,376.57,55.34z"/>
		<path class="st0" d="M396.5,57.13V28.57h2.38v7.53l-0.58,0.12c0.39-1.85,1.12-3.37,2.2-4.55c1.08-1.18,2.31-2.05,3.68-2.61
			c1.37-0.56,2.67-0.84,3.91-0.84c0.73,0,1.47,0.07,2.2,0.2c0.73,0.14,1.45,0.38,2.14,0.72l-1.27,2.14c-0.46-0.19-1-0.36-1.59-0.49
			c-0.6-0.13-1.23-0.2-1.88-0.2c-1.04,0-2.12,0.21-3.24,0.64c-1.12,0.43-2.12,1.09-3.01,2c-0.89,0.91-1.56,2.13-2.03,3.68
			c-0.15,0.58-0.28,1.28-0.38,2.11c-0.1,0.83-0.15,2.04-0.15,3.62v14.48H396.5z"/>
		<path class="st1" d="M429.29,57.13V16.75h12.11l9.96,28.44h-1.51l9.96-28.44h12.11v40.38h-8.28V26.49l0.75,0.12l-9.73,26.94h-8.05
			l-9.79-26.94l0.75-0.12v30.65H429.29z"/>
		<path class="st1" d="M477.49,57.13V16.75h13.79c4.6,0,8.06,0.98,10.4,2.93c2.34,1.95,3.5,4.9,3.5,8.83c0,3.98-1.19,7-3.56,9.07
			c-2.38,2.07-5.82,3.1-10.34,3.1h-5.56v16.45H477.49z M485.71,33.27h4.69c2.05,0,3.63-0.33,4.75-0.98
			c1.12-0.66,1.68-1.87,1.68-3.65c0-1.7-0.53-2.87-1.59-3.5c-1.06-0.64-2.67-0.96-4.84-0.96h-4.69V33.27z"/>
		<path class="st1" d="M521.34,57.13l-16.22-40.38h9.15l11.53,30.18h-2.67l11.3-30.18h9.21l-16.16,40.38H521.34z"/>
		<path class="st1" d="M559.23,57.13V16.75h13.79c4.6,0,8.06,0.98,10.4,2.93c2.34,1.95,3.5,4.9,3.5,8.83c0,3.98-1.19,7-3.56,9.07
			c-2.38,2.07-5.82,3.1-10.34,3.1h-5.56v16.45H559.23z M567.46,33.27h4.69c2.05,0,3.63-0.33,4.75-0.98
			c1.12-0.66,1.68-1.87,1.68-3.65c0-1.7-0.53-2.87-1.59-3.5c-1.06-0.64-2.67-0.96-4.84-0.96h-4.69V33.27z"/>
		<path class="st1" d="M596.77,57.71c-2.01,0-3.69-0.61-5.04-1.82c-1.35-1.22-2.03-3.16-2.03-5.82V16.75h7.94V48.5
			c0,0.7,0.17,1.19,0.52,1.48c0.35,0.29,0.79,0.43,1.33,0.43c0.35,0,0.68-0.04,0.99-0.12c0.31-0.08,0.64-0.15,0.98-0.23v6.78
			c-0.85,0.31-1.68,0.53-2.49,0.67C598.16,57.64,597.43,57.71,596.77,57.71z"/>
		<path class="st1" d="M614.26,57.71c-2.08,0-3.96-0.39-5.62-1.16c-1.66-0.77-2.97-1.88-3.94-3.33c-0.97-1.45-1.45-3.12-1.45-5.01
			c0-1.66,0.35-3.09,1.04-4.29c0.7-1.2,1.62-2.12,2.78-2.78c0.93-0.54,1.97-0.93,3.13-1.16c1.16-0.23,2.38-0.35,3.65-0.35h8.75v5.85
			h-7.59c-0.54,0-1.04,0.05-1.51,0.15c-0.46,0.1-0.89,0.28-1.27,0.55c-0.31,0.23-0.55,0.52-0.72,0.87s-0.26,0.73-0.26,1.16
			c0,0.97,0.38,1.73,1.13,2.29c0.75,0.56,1.77,0.84,3.04,0.84c1.2,0,2.29-0.25,3.27-0.75c0.99-0.5,1.78-1.2,2.38-2.09
			c0.6-0.89,0.9-1.89,0.9-3.01l1.85,4.35c-0.62,2.01-1.44,3.58-2.46,4.72c-1.02,1.14-2.14,1.95-3.36,2.43
			C616.79,57.47,615.54,57.71,614.26,57.71z M622.55,57.13l-0.58-3.82V39.06c0-1.54-0.51-2.67-1.54-3.36
			c-1.02-0.69-2.35-1.04-3.97-1.04c-1.51,0-3.08,0.29-4.72,0.87c-1.64,0.58-3.04,1.33-4.2,2.26l-3.71-5.5
			c2.16-1.58,4.31-2.69,6.43-3.33c2.12-0.64,4.42-0.96,6.89-0.96c3.98,0,7.09,0.98,9.33,2.95c2.24,1.97,3.36,4.67,3.36,8.11v18.07
			H622.55z"/>
		<path class="st1" d="M636.63,68.95l5.91-14.25l-10.66-26.13h8.69l6.2,18.19l6.31-18.19h8.57L645.2,68.95H636.63z"/>
		<path class="st1" d="M676.95,57.71c-2.55,0-4.74-0.41-6.58-1.22c-1.83-0.81-3.32-1.91-4.46-3.3c-1.14-1.39-1.97-2.96-2.49-4.72
			c-0.52-1.76-0.78-3.58-0.78-5.47c0-1.81,0.26-3.61,0.78-5.39c0.52-1.78,1.32-3.39,2.4-4.84c1.08-1.45,2.51-2.61,4.29-3.48
			c1.78-0.87,3.9-1.3,6.37-1.3c2.2,0,4.14,0.38,5.82,1.13c1.68,0.75,3.08,1.8,4.2,3.13s1.96,2.91,2.52,4.72
			c0.56,1.82,0.84,3.77,0.84,5.85c0,0.35-0.01,0.75-0.03,1.22s-0.07,0.98-0.14,1.56h-19.12c0.23,1.78,0.99,3.1,2.26,3.97
			c1.27,0.87,2.8,1.3,4.58,1.3c1.43,0,2.86-0.25,4.29-0.75c1.43-0.5,2.68-1.22,3.77-2.14l3.65,5.56c-1.43,1-2.75,1.82-3.97,2.43
			c-1.22,0.62-2.47,1.06-3.77,1.33C680.08,57.58,678.61,57.71,676.95,57.71z M682.04,41.61c0.08-0.31,0.15-0.62,0.2-0.93
			c0.06-0.31,0.09-0.6,0.09-0.87c0-0.77-0.14-1.48-0.43-2.11c-0.29-0.64-0.69-1.19-1.19-1.65c-0.5-0.46-1.1-0.82-1.8-1.07
			c-0.7-0.25-1.47-0.38-2.32-0.38c-1.35,0-2.46,0.26-3.33,0.78s-1.53,1.17-1.97,1.94c-0.44,0.77-0.72,1.56-0.84,2.38h14.25
			L682.04,41.61z"/>
		<path class="st1" d="M693.63,57.13V28.57h7.99v7.76l-1.1,0.06c0.12-1.62,0.59-3.07,1.42-4.34s1.88-2.27,3.16-2.98
			c1.27-0.71,2.59-1.07,3.94-1.07c0.97,0,1.89,0.14,2.78,0.41c0.89,0.27,1.83,0.72,2.84,1.33l-3.82,7.18
			c-0.42-0.27-0.98-0.51-1.65-0.72c-0.68-0.21-1.36-0.32-2.06-0.32s-1.37,0.14-2.03,0.41c-0.66,0.27-1.24,0.67-1.74,1.19
			c-0.5,0.52-0.91,1.21-1.22,2.06c-0.19,0.54-0.34,1.23-0.43,2.06c-0.1,0.83-0.14,2.06-0.14,3.68v11.88H693.63z"/>
	</g>
</g>
</svg>
