<?xml version="1.0" encoding="utf-8"?>
<!-- Generator: Adobe Illustrator 27.1.1, SVG Export Plug-In . SVG Version: 6.00 Build 0)  -->
<svg version="1.1" id="Layer_1" xmlns="http://www.w3.org/2000/svg" xmlns:xlink="http://www.w3.org/1999/xlink" x="0px" y="0px"
	 viewBox="0 0 816 80" style="enable-background:new 0 0 816 80;" xml:space="preserve">
<style type="text/css">
	.st0{fill:#0095FF;}
	.st1{fill:#FFFFFF;}
</style>
<path class="st0" d="M806,80H10C4.5,80,0,75.5,0,70V10C0,4.5,4.5,0,10,0h796c5.5,0,10,4.5,10,10v60C816,75.5,811.5,80,806,80z"/>
<g>
	<g>
		<path class="st1" d="M186.1,54.6V32.7h3.2v3.4h0.3c0.5-1.2,1.2-2.1,2.2-2.7c1-0.7,2.2-1,3.7-1c1.4,0,2.6,0.3,3.6,1
			c1,0.7,1.7,1.6,2.2,2.7h0.2c0.6-1.1,1.4-2,2.5-2.7c1.1-0.7,2.4-1,4-1c2,0,3.6,0.6,4.8,1.8c1.2,1.2,1.9,3.1,1.9,5.7v14.6h-3.4V39.9
			c0-1.6-0.4-2.8-1.3-3.5c-0.9-0.7-1.9-1-3.1-1c-1.5,0-2.7,0.5-3.5,1.4c-0.8,0.9-1.3,2.1-1.3,3.5v14.2h-3.4v-15c0-1.2-0.4-2.2-1.2-3
			c-0.8-0.8-1.8-1.1-3.1-1.1c-0.9,0-1.7,0.2-2.4,0.7c-0.8,0.5-1.4,1.1-1.8,1.9c-0.5,0.8-0.7,1.8-0.7,2.8v13.6H186.1z"/>
		<path class="st1" d="M221.2,62.7c-0.6,0-1.1,0-1.5-0.1c-0.4-0.1-0.8-0.2-0.9-0.3l0.9-2.9l0.3,0.1c1.1,0.3,2.1,0.2,2.8-0.2
			s1.4-1.3,2-2.9l0.6-1.7l-8-22h3.6l6,17.4h0.2l6-17.4h3.6l-9.3,25c-0.4,1.1-0.9,2.1-1.5,2.8c-0.6,0.7-1.3,1.3-2.1,1.7
			C223.1,62.5,222.2,62.7,221.2,62.7z"/>
		<path class="st1" d="M257.6,55c-2,0-3.8-0.5-5.3-1.5c-1.5-1-2.6-2.3-3.4-4c-0.8-1.7-1.2-3.6-1.2-5.8c0-2.2,0.4-4.2,1.2-5.9
			s2-3,3.4-4c1.5-1,3.2-1.4,5.2-1.4c1.5,0,2.9,0.3,4.2,0.8s2.2,1.4,3,2.4c0.8,1,1.3,2.2,1.5,3.6h-3.4c-0.2-0.7-0.5-1.3-0.9-1.9
			c-0.4-0.6-1-1.1-1.7-1.4c-0.7-0.4-1.6-0.5-2.6-0.5c-1.3,0-2.4,0.3-3.4,1c-1,0.7-1.7,1.6-2.3,2.9s-0.8,2.7-0.8,4.3
			c0,1.7,0.3,3.1,0.8,4.4c0.5,1.3,1.3,2.2,2.3,2.9c1,0.7,2.1,1,3.4,1c1.3,0,2.4-0.3,3.4-1s1.6-1.6,1.9-2.8h3.4
			c-0.2,1.3-0.6,2.4-1.4,3.5c-0.7,1-1.7,1.8-2.9,2.5C260.6,54.7,259.2,55,257.6,55z"/>
		<path class="st1" d="M278.2,55c-2,0-3.7-0.5-5.2-1.4s-2.6-2.3-3.5-3.9c-0.8-1.7-1.2-3.7-1.2-5.9c0-2.3,0.4-4.3,1.2-6
			c0.8-1.7,2-3,3.5-4s3.2-1.4,5.2-1.4c2,0,3.7,0.5,5.2,1.4s2.6,2.3,3.5,4c0.8,1.7,1.2,3.7,1.2,6c0,2.2-0.4,4.2-1.2,5.9
			c-0.8,1.7-2,3-3.5,3.9S280.2,55,278.2,55z M278.2,52c1.5,0,2.7-0.4,3.7-1.2c1-0.8,1.7-1.8,2.1-3c0.5-1.3,0.7-2.6,0.7-4.1
			c0-1.5-0.2-2.8-0.7-4.1c-0.5-1.3-1.2-2.3-2.1-3.1c-1-0.8-2.2-1.2-3.7-1.2c-1.5,0-2.7,0.4-3.7,1.2c-1,0.8-1.7,1.8-2.1,3.1
			c-0.5,1.3-0.7,2.6-0.7,4.1c0,1.4,0.2,2.8,0.7,4.1c0.5,1.3,1.2,2.3,2.1,3C275.5,51.6,276.7,52,278.2,52z"/>
		<path class="st1" d="M294.7,41.4v13.1h-3.3V32.7h3.2v3.4h0.3c0.5-1.1,1.3-2,2.3-2.7c1-0.7,2.4-1,4-1c1.5,0,2.8,0.3,3.9,0.9
			c1.1,0.6,2,1.5,2.6,2.7c0.6,1.2,0.9,2.8,0.9,4.6v13.9h-3.3V40.9c0-1.7-0.4-3-1.3-4c-0.9-1-2.1-1.5-3.7-1.5c-1.1,0-2,0.2-2.9,0.7
			c-0.8,0.5-1.5,1.1-2,2C294.9,39.1,294.7,40.1,294.7,41.4z"/>
		<path class="st1" d="M322.6,32.7v2.9h-11.8v-2.9H322.6z M314.4,54.6V29.7c0-1.2,0.3-2.3,0.9-3.1c0.6-0.8,1.4-1.5,2.3-1.9
			c0.9-0.4,1.9-0.6,2.9-0.6c0.8,0,1.5,0.1,2,0.2s0.9,0.3,1.2,0.4l-1,2.9c-0.2-0.1-0.4-0.1-0.7-0.2c-0.3-0.1-0.7-0.1-1.2-0.1
			c-1.1,0-1.9,0.3-2.4,0.8c-0.5,0.6-0.8,1.4-0.8,2.5v24H314.4z"/>
		<path class="st1" d="M327.1,29.1c-0.7,0-1.2-0.2-1.7-0.7c-0.5-0.4-0.7-1-0.7-1.6s0.2-1.2,0.7-1.6c0.5-0.4,1-0.7,1.7-0.7
			c0.7,0,1.2,0.2,1.7,0.7c0.5,0.4,0.7,1,0.7,1.6s-0.2,1.2-0.7,1.6C328.3,28.9,327.8,29.1,327.1,29.1z M325.5,54.6V32.7h3.3v21.8
			H325.5z"/>
		<path class="st1" d="M341.9,63.2c-2.4,0-4.4-0.4-5.8-1.3c-1.4-0.9-2.5-1.9-3.1-3l2.7-1.9c0.3,0.4,0.7,0.9,1.2,1.4s1.1,1,1.9,1.3
			c0.8,0.4,1.9,0.6,3.2,0.6c1.8,0,3.2-0.4,4.4-1.3s1.7-2.2,1.7-4v-4.4h-0.3c-0.2,0.4-0.6,0.9-1,1.5c-0.4,0.6-1.1,1.1-1.9,1.5
			s-2,0.7-3.4,0.7c-1.8,0-3.3-0.4-4.7-1.2c-1.4-0.8-2.5-2-3.3-3.6c-0.8-1.6-1.2-3.5-1.2-5.8c0-2.2,0.4-4.2,1.2-5.8
			c0.8-1.7,1.9-2.9,3.3-3.9s3-1.4,4.9-1.4c1.4,0,2.5,0.2,3.4,0.7s1.5,1,1.9,1.6c0.4,0.6,0.8,1.1,1,1.5h0.4v-3.5h3.2v22.5
			c0,1.9-0.4,3.4-1.3,4.6s-2,2-3.4,2.6S343.6,63.2,341.9,63.2z M341.7,51.2c2,0,3.6-0.7,4.6-2.1s1.6-3.3,1.6-5.7
			c0-1.6-0.2-3-0.7-4.2c-0.5-1.2-1.2-2.1-2.1-2.8c-0.9-0.7-2.1-1-3.4-1c-1.4,0-2.6,0.4-3.5,1.1c-0.9,0.7-1.7,1.7-2.1,2.9
			s-0.7,2.6-0.7,4c0,1.5,0.2,2.8,0.7,4c0.5,1.2,1.2,2.1,2.1,2.7C339.2,50.9,340.3,51.2,341.7,51.2z"/>
		<path class="st1" d="M374.6,32.7v2.9h-11.8v-2.9H374.6z M366.4,54.6V29.7c0-1.2,0.3-2.3,0.9-3.1c0.6-0.8,1.4-1.5,2.3-1.9
			c0.9-0.4,1.9-0.6,2.9-0.6c0.8,0,1.5,0.1,2,0.2s0.9,0.3,1.2,0.4l-1,2.9c-0.2-0.1-0.4-0.1-0.7-0.2c-0.3-0.1-0.7-0.1-1.2-0.1
			c-1.1,0-1.9,0.3-2.4,0.8c-0.5,0.6-0.8,1.4-0.8,2.5v24H366.4z"/>
		<path class="st1" d="M386.3,55c-2,0-3.7-0.5-5.2-1.4s-2.6-2.3-3.5-3.9c-0.8-1.7-1.2-3.7-1.2-5.9c0-2.3,0.4-4.3,1.2-6
			c0.8-1.7,2-3,3.5-4s3.2-1.4,5.2-1.4c2,0,3.7,0.5,5.2,1.4s2.6,2.3,3.5,4c0.8,1.7,1.2,3.7,1.2,6c0,2.2-0.4,4.2-1.2,5.9
			c-0.8,1.7-2,3-3.5,3.9S388.3,55,386.3,55z M386.3,52c1.5,0,2.7-0.4,3.7-1.2c1-0.8,1.7-1.8,2.1-3c0.5-1.3,0.7-2.6,0.7-4.1
			c0-1.5-0.2-2.8-0.7-4.1c-0.5-1.3-1.2-2.3-2.1-3.1c-1-0.8-2.2-1.2-3.7-1.2c-1.5,0-2.7,0.4-3.7,1.2c-1,0.8-1.7,1.8-2.1,3.1
			c-0.5,1.3-0.7,2.6-0.7,4.1c0,1.4,0.2,2.8,0.7,4.1c0.5,1.3,1.2,2.3,2.1,3C383.6,51.6,384.8,52,386.3,52z"/>
		<path class="st1" d="M399.5,54.6V32.7h3.2V36h0.2c0.4-1.1,1.1-2,2.2-2.6c1-0.7,2.2-1,3.5-1c0.2,0,0.6,0,0.9,0c0.4,0,0.6,0,0.8,0
			v3.4c-0.1,0-0.4-0.1-0.8-0.1c-0.4-0.1-0.8-0.1-1.3-0.1c-1.1,0-2,0.2-2.8,0.7c-0.8,0.4-1.5,1-2,1.8c-0.5,0.8-0.7,1.6-0.7,2.6v13.8
			H399.5z"/>
		<path class="st1" d="M421.6,25.4h7.6l8,19.6h0.3l8-19.6h7.6v29.1h-6V35.6h-0.2l-7.6,18.8h-4.1l-7.5-18.8h-0.2v19h-6V25.4z"/>
		<path class="st1" d="M456.9,54.6V25.4h11.5c2.2,0,4.1,0.4,5.6,1.3c1.6,0.8,2.7,2,3.6,3.5c0.8,1.5,1.2,3.2,1.2,5.1
			c0,1.9-0.4,3.6-1.2,5.1c-0.8,1.5-2,2.6-3.6,3.4c-1.6,0.8-3.5,1.2-5.7,1.2h-7.3v-4.9h6.3c1.2,0,2.2-0.2,2.9-0.6
			c0.8-0.4,1.4-1,1.7-1.7c0.4-0.7,0.6-1.6,0.6-2.5c0-1-0.2-1.8-0.6-2.5c-0.4-0.7-1-1.3-1.7-1.7c-0.8-0.4-1.8-0.6-2.9-0.6H463v24.1
			H456.9z"/>
		<path class="st1" d="M486.8,25.4l7,22.1h0.3l7.1-22.1h6.8l-10,29.1H490l-10-29.1H486.8z"/>
		<path class="st1" d="M518,54.6V25.4h11.5c2.2,0,4.1,0.4,5.6,1.3c1.6,0.8,2.7,2,3.6,3.5c0.8,1.5,1.2,3.2,1.2,5.1
			c0,1.9-0.4,3.6-1.2,5.1c-0.8,1.5-2,2.6-3.6,3.4c-1.6,0.8-3.5,1.2-5.7,1.2h-7.3v-4.9h6.3c1.2,0,2.2-0.2,2.9-0.6
			c0.8-0.4,1.4-1,1.7-1.7c0.4-0.7,0.6-1.6,0.6-2.5c0-1-0.2-1.8-0.6-2.5c-0.4-0.7-1-1.3-1.7-1.7c-0.8-0.4-1.8-0.6-2.9-0.6h-4.2v24.1
			H518z"/>
		<path class="st1" d="M548.6,25.4v29.1h-6V25.4H548.6z"/>
		<path class="st1" d="M558.3,55c-1.4,0-2.6-0.2-3.7-0.7c-1.1-0.5-2-1.2-2.6-2.2c-0.6-1-0.9-2.2-0.9-3.6c0-1.2,0.2-2.2,0.7-3.1
			c0.4-0.8,1-1.5,1.8-2c0.8-0.5,1.6-0.9,2.6-1.2c1-0.3,2-0.4,3.1-0.5c1.3-0.1,2.3-0.2,3-0.4c0.8-0.1,1.3-0.3,1.7-0.5
			c0.4-0.2,0.5-0.6,0.5-1v-0.1c0-0.9-0.3-1.6-0.8-2.1c-0.6-0.5-1.4-0.7-2.4-0.7c-1.1,0-1.9,0.2-2.6,0.7c-0.6,0.5-1.1,1.1-1.3,1.8
			l-5.6-0.4c0.3-1.3,0.8-2.5,1.7-3.4c0.8-1,1.9-1.7,3.2-2.2c1.3-0.5,2.9-0.8,4.6-0.8c1.2,0,2.4,0.1,3.5,0.4c1.1,0.3,2.1,0.7,3,1.3
			c0.9,0.6,1.6,1.4,2.1,2.3s0.8,2.1,0.8,3.3v14.7h-5.8v-3h-0.2c-0.4,0.7-0.8,1.3-1.4,1.8c-0.6,0.5-1.3,0.9-2.1,1.2
			S559.4,55,558.3,55z M560.1,50.8c0.9,0,1.7-0.2,2.4-0.5c0.7-0.4,1.2-0.8,1.6-1.4c0.4-0.6,0.6-1.3,0.6-2v-2.3
			c-0.2,0.1-0.4,0.2-0.8,0.3c-0.3,0.1-0.7,0.2-1.1,0.3c-0.4,0.1-0.8,0.1-1.2,0.2c-0.4,0.1-0.8,0.1-1.1,0.2c-0.7,0.1-1.3,0.3-1.9,0.5
			c-0.5,0.2-0.9,0.5-1.2,0.9c-0.3,0.4-0.4,0.9-0.4,1.4c0,0.8,0.3,1.4,0.9,1.9C558.4,50.6,559.1,50.8,560.1,50.8z"/>
		<path class="st1" d="M577.9,62.7c-0.8,0-1.5,0-2.2-0.2c-0.7-0.1-1.2-0.3-1.7-0.4l1.4-4.5l0.2,0c1,0.3,1.9,0.4,2.6,0.2
			s1.3-0.7,1.7-1.7l0.4-0.9l-7.8-22.5h6.3l4.5,16h0.2l4.6-16h6.4L586,56.9c-0.4,1.2-1,2.2-1.7,3.1c-0.7,0.9-1.6,1.5-2.6,2
			S579.4,62.7,577.9,62.7z"/>
		<path class="st1" d="M606.2,55c-2.2,0-4.2-0.5-5.8-1.4c-1.6-0.9-2.9-2.2-3.7-3.9c-0.9-1.7-1.3-3.7-1.3-6c0-2.2,0.4-4.2,1.3-5.9
			c0.9-1.7,2.1-3,3.7-4c1.6-1,3.4-1.4,5.6-1.4c1.4,0,2.8,0.2,4,0.7c1.2,0.5,2.3,1.2,3.3,2.1s1.7,2.1,2.2,3.5c0.5,1.4,0.8,3,0.8,4.9
			v1.6h-18.4v-3.7h15.5l-2.8,1c0-1.1-0.2-2.1-0.5-2.9c-0.3-0.8-0.8-1.5-1.5-1.9c-0.7-0.4-1.5-0.7-2.5-0.7c-1,0-1.8,0.2-2.5,0.7
			c-0.7,0.5-1.2,1.1-1.6,1.9c-0.4,0.8-0.5,1.7-0.5,2.7v2.6c0,1.2,0.2,2.2,0.6,3c0.4,0.8,1,1.5,1.7,1.9c0.7,0.4,1.6,0.7,2.6,0.7
			c0.7,0,1.3-0.1,1.8-0.3s1-0.5,1.4-0.9c0.4-0.4,0.7-0.8,0.9-1.4l5.6,0.4c-0.3,1.3-0.8,2.5-1.7,3.5c-0.9,1-2,1.8-3.3,2.3
			C609.6,54.7,608,55,606.2,55z"/>
		<path class="st1" d="M618.8,54.6V32.7h5.8v3.8h0.2c0.4-1.4,1.1-2.4,2-3.1c0.9-0.7,2-1,3.2-1c0.3,0,0.6,0,1,0
			c0.3,0,0.7,0.1,0.9,0.2V38c-0.3-0.1-0.7-0.2-1.2-0.2c-0.5-0.1-1-0.1-1.4-0.1c-0.9,0-1.7,0.2-2.4,0.6c-0.7,0.4-1.3,0.9-1.7,1.6
			c-0.4,0.7-0.6,1.5-0.6,2.4v12.3H618.8z"/>
	</g>
</g>
</svg>
