<?xml version="1.0" encoding="utf-8"?>
<!-- Generator: Adobe Illustrator 26.1.0, SVG Export Plug-In . SVG Version: 6.00 Build 0)  -->
<svg version="1.1" id="Layer_1" xmlns="http://www.w3.org/2000/svg" xmlns:xlink="http://www.w3.org/1999/xlink" x="0px" y="0px"
	 viewBox="0 0 310 81" style="enable-background:new 0 0 310 81;" xml:space="preserve">
<style type="text/css">
	.st0{fill:#27146B;}
</style>
<g>
	<g>
		<g>
			<path class="st0" d="M13.99,3.64H37.4c9.55,0,16.55,3.11,21.02,9.32c4.47,6.21,5.72,14.84,3.77,25.89l-0.72,4.21
				c-1.95,11.05-6.25,19.7-12.91,25.95c-6.66,6.25-14.77,9.37-24.35,9.37H0.8L13.99,3.64z M24.98,68.16
				c5.61,0,10.35-2.04,14.22-6.11c3.87-4.07,6.5-9.96,7.9-17.66l1.13-6.72c1.44-7.8,0.89-13.67-1.64-17.6
				c-2.53-3.94-6.54-5.9-12.01-5.9H25.8l-9.6,54H24.98z"/>
			<path class="st0" d="M66.55,54.97H79.8l-0.41,2.41c-0.72,4.14-0.11,7.21,1.82,9.21c1.93,2,4.95,3,9.06,3c4,0,7.26-0.92,9.78-2.77
				s4.06-4.45,4.65-7.8c0.55-2.81-0.18-5.18-2.18-7.13c-2-1.95-5.76-3.87-11.27-5.75c-7.25-2.53-12.3-5.65-15.14-9.37
				c-2.84-3.71-3.76-8.22-2.77-13.52c1.16-6.54,4.26-11.63,9.29-15.3C87.65,4.29,94,2.46,101.66,2.46c7.46,0,13.14,1.83,17.04,5.49
				c3.9,3.66,5.27,8.73,4.11,15.19l-0.41,2.52h-12.99l0.31-1.8c0.62-3.46,0.09-6.19-1.57-8.19c-1.66-2-4.35-3-8.08-3
				c-3.83,0-6.86,0.85-9.08,2.54c-2.23,1.69-3.61,4.03-4.16,7.01c-0.48,2.6,0.3,4.82,2.34,6.65c2.04,1.83,5.86,3.69,11.47,5.57
				c7.19,2.43,12.18,5.48,14.99,9.16c2.81,3.68,3.66,8.44,2.57,14.29c-1.2,6.91-4.45,12.25-9.75,16.01
				c-5.3,3.76-11.91,5.65-19.81,5.65c-7.8,0-13.82-1.81-18.07-5.44c-4.24-3.63-5.75-8.93-4.52-15.91L66.55,54.97z"/>
			<path class="st0" d="M136.87,3.64h13.91l-11.24,63.54h30.08l-1.95,11.19h-43.99L136.87,3.64z"/>
			<path class="st0" d="M179.86,66.03c1.66-1.49,3.79-2.23,6.39-2.23c2.63,0,4.53,0.74,5.7,2.23c1.16,1.49,1.56,3.33,1.18,5.52
				c-0.41,2.22-1.45,4.09-3.13,5.59c-1.68,1.5-3.83,2.26-6.47,2.26c-2.6,0-4.48-0.76-5.65-2.28c-1.16-1.52-1.52-3.36-1.08-5.52
				C177.18,69.38,178.2,67.52,179.86,66.03z"/>
			<path class="st0" d="M216.99,63.03l-0.15,0.92c-0.41,2.6,0.14,4.46,1.64,5.59c1.5,1.13,3.71,1.69,6.62,1.69
				c2.94,0,5.24-0.52,6.88-1.57c1.64-1.04,2.65-2.51,3.03-4.39c0.38-1.85-0.18-3.24-1.67-4.18c-1.49-0.94-4.53-1.96-9.11-3.05
				c-5.85-1.23-9.93-3.09-12.24-5.57c-2.31-2.48-3.14-5.72-2.49-9.73c0.79-4.65,3.26-8.27,7.42-10.86
				c4.16-2.58,9.49-3.88,15.99-3.88c6.4,0,11.24,1.33,14.53,4c3.29,2.67,4.5,6.45,3.64,11.34l-0.21,0.92H238.5l0.21-0.97
				c0.38-2.33-0.09-4-1.39-5.03c-1.3-1.03-3.37-1.54-6.21-1.54c-2.63,0-4.67,0.44-6.11,1.31c-1.44,0.87-2.29,2.15-2.57,3.82
				c-0.27,1.44,0.34,2.66,1.85,3.67c1.5,1.01,4.5,2.04,8.98,3.11c5.82,1.23,10,3,12.55,5.31c2.55,2.31,3.46,5.55,2.75,9.73
				c-0.86,5.24-3.41,9.21-7.67,11.91c-4.26,2.7-9.92,4.05-16.96,4.05c-7.08,0-12.29-1.39-15.63-4.18c-3.34-2.79-4.61-6.7-3.82-11.73
				l0.15-0.87L216.99,63.03z"/>
			<path class="st0" d="M268.12,2.51h13.55l-8.01,45.63l20.53-18.68h15.45l-38.65,33.98l-2.67,14.94h-13.55L268.12,2.51z M275.1,54
				l9.7-9.34l18.58,33.72h-15.5L275.1,54z"/>
		</g>
	</g>
</g>
</svg>
