<?xml version="1.0" encoding="utf-8"?>
<!-- Generator: Adobe Illustrator 26.1.0, SVG Export Plug-In . SVG Version: 6.00 Build 0)  -->
<svg version="1.1" xmlns="http://www.w3.org/2000/svg" xmlns:xlink="http://www.w3.org/1999/xlink" x="0px" y="0px"
	 viewBox="0 0 179 32" style="enable-background:new 0 0 179 32;" xml:space="preserve">
<style type="text/css">
	.st0{fill:#FFFFFF;}
</style>
<g id="Layer_1">
	<g>
		<g>
			<path class="st0" d="M8.13,14.22l3.39-9.64h3.05v19.28h-2.38v-7.69l0.2-8.05L8.82,18.5h-1.4L4.14,8.4l0.2,7.77v7.69H1.96V4.58
				h3.03L8.13,14.22z"/>
			<path class="st0" d="M18.92,29.57c-0.31-0.05-0.54-0.1-0.7-0.13l0.4-2c0.22,0.02,0.44,0.03,0.66,0.05
				c0.22,0.01,0.39,0.02,0.51,0.02c0.34,0,0.64-0.09,0.92-0.28c0.28-0.19,0.53-0.41,0.75-0.66c0.21-0.26,0.4-0.52,0.55-0.79
				s0.28-0.5,0.36-0.67l0.98-1.91L17.17,9.54h2.74l3.93,9.24l0.64,1.73l0.68-1.68l3.69-9.3h2.74l-7.27,16.54
				c-0.17,0.37-0.38,0.76-0.64,1.18c-0.26,0.42-0.58,0.8-0.95,1.15c-0.37,0.35-0.8,0.65-1.3,0.89c-0.49,0.24-1.06,0.36-1.71,0.36
				C19.5,29.65,19.23,29.62,18.92,29.57z"/>
			<path class="st0" d="M37.62,18.87l-1.55,4.99h-2.45l6.22-19.28h2.05l6.12,19.28h-2.44l-1.52-4.99H37.62z M43.4,16.74l-2.54-8.37
				l-2.58,8.37H43.4z"/>
			<path class="st0" d="M51.12,9.54h2.2l0.17,2.12c0.21-0.3,0.44-0.58,0.7-0.83c0.25-0.25,0.52-0.47,0.8-0.66
				c0.42-0.28,0.89-0.5,1.38-0.66s1.03-0.24,1.58-0.25c0.75,0,1.43,0.11,2.05,0.32c0.61,0.21,1.14,0.54,1.57,0.99
				c0.43,0.45,0.77,1.02,1,1.71c0.23,0.69,0.35,1.52,0.35,2.47v9.1h-2.45v-9.04c0-0.64-0.07-1.17-0.21-1.62s-0.35-0.8-0.62-1.07
				c-0.28-0.27-0.62-0.47-1.03-0.6c-0.4-0.12-0.86-0.19-1.38-0.19c-0.45,0-0.87,0.06-1.26,0.19c-0.39,0.13-0.75,0.3-1.07,0.52
				c-0.27,0.19-0.51,0.42-0.73,0.68s-0.42,0.54-0.59,0.85v10.28h-2.45V9.54z"/>
			<path class="st0" d="M75.1,9.54v12.21h4.67v2.12h-12v-2.12h4.87V11.67h-4.87V9.54H75.1z M72.43,5.18C72.5,5,72.6,4.84,72.74,4.7
				c0.11-0.11,0.26-0.21,0.44-0.27c0.18-0.07,0.39-0.1,0.62-0.1s0.43,0.03,0.61,0.1s0.32,0.16,0.44,0.27
				c0.14,0.12,0.25,0.28,0.32,0.46c0.07,0.19,0.11,0.39,0.11,0.61c0,0.4-0.12,0.73-0.37,0.99c-0.25,0.26-0.61,0.4-1.1,0.4
				c-0.49,0-0.86-0.13-1.11-0.4c-0.24-0.26-0.36-0.6-0.36-0.99C72.33,5.56,72.37,5.37,72.43,5.18z"/>
			<path class="st0" d="M84.86,10.89c0.29-0.5,0.67-0.9,1.15-1.18c0.47-0.28,1.04-0.43,1.71-0.44c0.38,0,0.72,0.04,1.03,0.13
				c0.3,0.08,0.57,0.21,0.8,0.36c0.17,0.12,0.32,0.27,0.46,0.45c0.14,0.18,0.25,0.38,0.35,0.6c0.12-0.2,0.27-0.39,0.44-0.57
				s0.35-0.33,0.54-0.46c0.25-0.15,0.52-0.27,0.83-0.36c0.3-0.09,0.64-0.14,1-0.15c0.49,0,0.94,0.07,1.34,0.22
				c0.4,0.15,0.73,0.36,1.01,0.64c0.3,0.32,0.53,0.73,0.69,1.24c0.16,0.51,0.24,1.11,0.24,1.79v10.7H94.1V13.14
				c0-0.3-0.04-0.56-0.11-0.79c-0.07-0.23-0.17-0.42-0.3-0.57c-0.14-0.14-0.32-0.25-0.52-0.32c-0.21-0.07-0.45-0.11-0.72-0.11
				c-0.29,0-0.54,0.04-0.75,0.12c-0.21,0.08-0.39,0.19-0.53,0.32c-0.14,0.14-0.25,0.3-0.33,0.48c-0.08,0.18-0.13,0.38-0.16,0.6
				c0,0.04,0,0.09,0,0.13c0,0.04,0,0.09,0,0.14v10.73h-2.33V13.12c0-0.3-0.03-0.56-0.1-0.79c-0.07-0.23-0.17-0.42-0.31-0.57
				c-0.13-0.14-0.3-0.24-0.5-0.31s-0.43-0.1-0.7-0.1c-0.29,0-0.54,0.03-0.76,0.1s-0.4,0.16-0.55,0.28c-0.11,0.1-0.21,0.21-0.3,0.33
				c-0.08,0.12-0.15,0.26-0.21,0.4v11.4H82.6V9.54h2.2L84.86,10.89z"/>
			<path class="st0" d="M103.5,23.61c-0.84-0.34-1.57-0.83-2.17-1.44c-0.6-0.62-1.07-1.35-1.4-2.2c-0.34-0.85-0.5-1.77-0.5-2.77
				v-0.56c0-1.16,0.19-2.19,0.56-3.11c0.37-0.91,0.87-1.69,1.48-2.32c0.61-0.63,1.3-1.11,2.09-1.44s1.58-0.5,2.4-0.5
				c1.03,0,1.93,0.18,2.71,0.54c0.77,0.36,1.42,0.85,1.93,1.48c0.51,0.64,0.89,1.38,1.15,2.24c0.25,0.86,0.38,1.78,0.38,2.78v1.1
				h-10.23v0.09c0.06,0.7,0.2,1.31,0.42,1.84c0.22,0.53,0.51,1,0.89,1.4c0.39,0.43,0.86,0.77,1.4,1.02
				c0.55,0.25,1.15,0.37,1.81,0.37c0.87,0,1.65-0.18,2.33-0.53c0.68-0.35,1.24-0.82,1.69-1.4l1.5,1.17
				c-0.48,0.72-1.19,1.37-2.14,1.93c-0.95,0.56-2.12,0.84-3.52,0.84C105.26,24.13,104.34,23.96,103.5,23.61z M104.55,11.56
				c-0.44,0.18-0.84,0.44-1.19,0.79c-0.35,0.35-0.65,0.78-0.89,1.29c-0.24,0.51-0.41,1.09-0.51,1.75h7.71v-0.12
				c0-0.44-0.08-0.92-0.25-1.42c-0.17-0.51-0.4-0.95-0.7-1.32c-0.3-0.37-0.68-0.67-1.13-0.9c-0.46-0.23-1-0.34-1.62-0.34
				C105.46,11.28,104.99,11.38,104.55,11.56z"/>
			<path class="st0" d="M128.41,21.78v2.08h-11.88V4.58h2.45v17.2H128.41z"/>
			<path class="st0" d="M140.19,9.54v12.21h4.67v2.12h-12v-2.12h4.87V11.67h-4.87V9.54H140.19z M137.52,5.18
				c0.07-0.19,0.17-0.34,0.31-0.48c0.11-0.11,0.26-0.21,0.44-0.27s0.39-0.1,0.62-0.1s0.43,0.03,0.61,0.1s0.32,0.16,0.44,0.27
				c0.14,0.12,0.25,0.28,0.32,0.46s0.11,0.39,0.11,0.61c0,0.4-0.12,0.73-0.37,0.99s-0.61,0.4-1.1,0.4c-0.49,0-0.86-0.13-1.11-0.4
				c-0.24-0.26-0.36-0.6-0.36-0.99C137.42,5.56,137.46,5.37,137.52,5.18z"/>
			<path class="st0" d="M158.11,19.28c-0.11-0.23-0.31-0.45-0.58-0.64c-0.27-0.19-0.64-0.37-1.09-0.54
				c-0.45-0.16-1.01-0.31-1.68-0.44c-0.82-0.17-1.57-0.37-2.24-0.61c-0.68-0.24-1.25-0.52-1.73-0.86c-0.49-0.33-0.86-0.71-1.13-1.16
				s-0.4-0.96-0.4-1.56c0-0.58,0.14-1.13,0.41-1.64c0.27-0.51,0.66-0.95,1.15-1.33c0.49-0.38,1.08-0.68,1.77-0.9
				c0.68-0.22,1.44-0.33,2.26-0.33c0.88,0,1.68,0.11,2.38,0.34c0.71,0.23,1.31,0.55,1.8,0.95c0.5,0.41,0.88,0.88,1.15,1.42
				s0.4,1.13,0.4,1.75h-2.45c0-0.31-0.08-0.61-0.24-0.91c-0.16-0.3-0.38-0.56-0.66-0.79c-0.28-0.23-0.62-0.42-1.03-0.56
				c-0.4-0.14-0.85-0.21-1.36-0.21c-0.52,0-0.98,0.06-1.37,0.17c-0.39,0.11-0.72,0.27-0.97,0.46c-0.26,0.19-0.46,0.42-0.6,0.68
				c-0.13,0.26-0.2,0.52-0.2,0.79c0,0.28,0.05,0.53,0.16,0.75c0.11,0.22,0.29,0.42,0.56,0.6c0.26,0.18,0.6,0.34,1.04,0.48
				c0.44,0.14,0.99,0.28,1.66,0.41c0.88,0.19,1.67,0.4,2.37,0.64c0.7,0.24,1.28,0.53,1.76,0.87c0.48,0.34,0.84,0.74,1.09,1.19
				c0.25,0.45,0.38,0.97,0.38,1.56c0,0.64-0.14,1.21-0.43,1.74c-0.29,0.52-0.69,0.97-1.2,1.34s-1.12,0.66-1.84,0.86
				s-1.5,0.3-2.34,0.3c-0.97,0-1.84-0.13-2.6-0.39c-0.76-0.26-1.4-0.61-1.92-1.04c-0.53-0.42-0.93-0.92-1.21-1.48
				c-0.28-0.56-0.42-1.15-0.42-1.76h2.45c0.04,0.5,0.17,0.93,0.4,1.27c0.23,0.34,0.53,0.62,0.88,0.83c0.34,0.21,0.73,0.36,1.15,0.45
				s0.84,0.13,1.26,0.13c0.65,0,1.22-0.08,1.71-0.23s0.87-0.37,1.14-0.64c0.17-0.17,0.3-0.35,0.38-0.56s0.13-0.42,0.13-0.65
				C158.28,19.77,158.22,19.51,158.11,19.28z"/>
			<path class="st0" d="M170.83,9.54h5.46v1.89h-5.46v7.79c0,0.56,0.07,1.02,0.21,1.38c0.14,0.36,0.33,0.65,0.58,0.86
				c0.25,0.22,0.53,0.38,0.85,0.46s0.66,0.13,1.03,0.13c0.26,0,0.54-0.01,0.82-0.05s0.56-0.07,0.83-0.11
				c0.27-0.04,0.51-0.09,0.75-0.14c0.23-0.05,0.43-0.09,0.58-0.12l0.34,1.73c-0.2,0.12-0.45,0.23-0.74,0.32
				c-0.29,0.09-0.61,0.17-0.95,0.23c-0.34,0.07-0.71,0.12-1.09,0.16c-0.38,0.04-0.77,0.05-1.15,0.05c-0.64,0-1.23-0.09-1.78-0.27
				s-1.03-0.47-1.44-0.87c-0.41-0.39-0.73-0.89-0.96-1.52c-0.23-0.62-0.35-1.38-0.35-2.26v-7.79h-3.76V9.54h3.76V6.07h2.46V9.54z"/>
		</g>
	</g>
</g>
<g id="Layer_2">
</g>
</svg>
