<?xml version="1.0" encoding="utf-8"?>
<!-- Generator: Adobe Illustrator 26.1.0, SVG Export Plug-In . SVG Version: 6.00 Build 0)  -->
<svg version="1.1" id="Layer_1" xmlns="http://www.w3.org/2000/svg" xmlns:xlink="http://www.w3.org/1999/xlink" x="0px" y="0px"
	 viewBox="0 0 1000 70" style="enable-background:new 0 0 1000 70;" xml:space="preserve">
<style type="text/css">
	.st0{fill:url(#SVGID_1_);}
	.st1{opacity:0.9;}
	.st2{fill:#FFFFFF;}
</style>
<linearGradient id="SVGID_1_" gradientUnits="userSpaceOnUse" x1="0" y1="35" x2="1000" y2="35">
	<stop  offset="0" style="stop-color:#000000;stop-opacity:0"/>
	<stop  offset="0.5" style="stop-color:#000000;stop-opacity:0.8"/>
	<stop  offset="1" style="stop-color:#000000;stop-opacity:0"/>
</linearGradient>
<rect class="st0" width="1000" height="70"/>
<g>
	<g class="st1">
		<g>
			<g>
				<path class="st2" d="M379.97,35.78l5-14.22h4.49V50h-3.52V38.65l0.29-11.88l-5.25,15.31h-2.07l-4.82-14.9l0.29,11.46V50h-3.52
					V21.56h4.47L379.97,35.78z"/>
				<path class="st2" d="M395.89,58.42c-0.46-0.08-0.8-0.14-1.04-0.2l0.59-2.95c0.33,0.03,0.65,0.05,0.97,0.07
					c0.32,0.02,0.57,0.03,0.75,0.03c0.49,0,0.95-0.14,1.36-0.41s0.78-0.6,1.1-0.98c0.31-0.38,0.58-0.77,0.81-1.17
					c0.23-0.4,0.41-0.74,0.54-1l1.45-2.81l-9.1-20.14h4.04l5.8,13.63l0.94,2.56l1-2.48l5.45-13.71h4.04l-10.72,24.39
					c-0.25,0.55-0.56,1.13-0.95,1.74c-0.38,0.61-0.85,1.18-1.4,1.7c-0.55,0.52-1.19,0.96-1.91,1.31c-0.73,0.35-1.57,0.53-2.52,0.53
					C396.74,58.54,396.34,58.5,395.89,58.42z"/>
				<path class="st2" d="M423.47,42.64L421.18,50h-3.61l9.18-28.44h3.03L438.8,50h-3.59l-2.25-7.36H423.47z M432,39.49l-3.75-12.34
					l-3.81,12.34H432z"/>
				<path class="st2" d="M443.39,28.87h3.24l0.25,3.12c0.31-0.44,0.65-0.85,1.03-1.22s0.76-0.69,1.18-0.97
					c0.62-0.42,1.31-0.74,2.04-0.97c0.74-0.23,1.51-0.35,2.33-0.36c1.11,0,2.11,0.16,3.02,0.47c0.9,0.31,1.68,0.8,2.31,1.46
					c0.64,0.66,1.13,1.51,1.47,2.53c0.34,1.02,0.52,2.24,0.52,3.64V50h-3.61V36.66c0-0.94-0.1-1.73-0.31-2.38
					c-0.21-0.65-0.51-1.18-0.92-1.58c-0.42-0.4-0.92-0.7-1.51-0.88c-0.59-0.18-1.27-0.27-2.04-0.27c-0.66,0-1.28,0.09-1.86,0.28
					c-0.57,0.19-1.1,0.45-1.58,0.77c-0.39,0.29-0.75,0.62-1.08,1c-0.33,0.38-0.62,0.79-0.87,1.25V50h-3.61V28.87z"/>
				<path class="st2" d="M478.76,28.87v18.01h6.89V50h-17.7v-3.12h7.19V32.01h-7.19v-3.14H478.76z M474.82,22.44
					c0.1-0.27,0.25-0.51,0.46-0.7c0.17-0.17,0.39-0.3,0.65-0.4c0.27-0.1,0.57-0.15,0.91-0.15c0.34,0,0.64,0.05,0.9,0.15
					c0.26,0.1,0.48,0.23,0.64,0.4c0.21,0.18,0.36,0.41,0.47,0.68c0.1,0.27,0.16,0.57,0.16,0.9c0,0.59-0.18,1.07-0.55,1.46
					c-0.36,0.39-0.91,0.59-1.62,0.59c-0.73,0-1.27-0.2-1.63-0.59c-0.36-0.39-0.54-0.88-0.54-1.46
					C474.68,23.01,474.73,22.71,474.82,22.44z"/>
				<path class="st2" d="M493.15,30.86c0.43-0.74,0.99-1.32,1.69-1.74c0.7-0.42,1.54-0.63,2.53-0.64c0.56,0,1.06,0.06,1.51,0.19
					c0.45,0.12,0.84,0.3,1.18,0.54c0.25,0.18,0.47,0.4,0.67,0.66c0.2,0.26,0.37,0.55,0.52,0.88c0.18-0.3,0.4-0.58,0.64-0.84
					c0.25-0.26,0.51-0.49,0.8-0.68c0.36-0.22,0.77-0.4,1.22-0.53c0.45-0.13,0.94-0.2,1.47-0.21c0.73,0,1.39,0.11,1.97,0.32
					s1.08,0.53,1.48,0.95c0.44,0.47,0.78,1.08,1.02,1.83c0.23,0.75,0.35,1.63,0.35,2.65V50h-3.44V34.18c0-0.44-0.05-0.83-0.16-1.17
					c-0.1-0.34-0.25-0.62-0.45-0.84c-0.21-0.21-0.47-0.36-0.77-0.47c-0.31-0.1-0.66-0.16-1.06-0.16c-0.43,0-0.8,0.06-1.11,0.18
					s-0.57,0.27-0.78,0.47c-0.21,0.21-0.37,0.45-0.49,0.71c-0.12,0.27-0.2,0.56-0.23,0.89c0,0.07,0,0.13,0,0.19s0,0.13,0,0.21V50
					h-3.44V34.16c0-0.44-0.05-0.83-0.15-1.17c-0.1-0.34-0.25-0.62-0.46-0.84c-0.2-0.21-0.44-0.36-0.73-0.46s-0.63-0.15-1.03-0.15
					c-0.43,0-0.8,0.05-1.12,0.15c-0.32,0.1-0.59,0.24-0.81,0.42c-0.17,0.14-0.32,0.31-0.44,0.49c-0.12,0.18-0.22,0.38-0.3,0.59V50
					h-3.44V28.87h3.24L493.15,30.86z"/>
				<path class="st2" d="M520.64,49.63c-1.24-0.51-2.31-1.22-3.19-2.13c-0.89-0.91-1.58-1.99-2.07-3.24s-0.74-2.61-0.74-4.08v-0.82
					c0-1.71,0.27-3.23,0.82-4.58s1.28-2.49,2.19-3.43c0.9-0.92,1.92-1.63,3.08-2.13c1.15-0.49,2.33-0.74,3.54-0.74
					c1.52,0,2.85,0.26,3.99,0.79s2.09,1.25,2.84,2.18c0.75,0.94,1.32,2.04,1.69,3.3c0.37,1.26,0.56,2.63,0.56,4.1v1.62h-15.1v0.14
					c0.09,1.03,0.3,1.93,0.62,2.71s0.76,1.47,1.32,2.07c0.57,0.64,1.26,1.14,2.07,1.5c0.81,0.36,1.7,0.55,2.68,0.55
					c1.29,0,2.43-0.26,3.44-0.78c1-0.52,1.84-1.21,2.5-2.07l2.21,1.72c-0.7,1.07-1.75,2.02-3.15,2.84c-1.4,0.83-3.13,1.24-5.19,1.24
					C523.25,50.39,521.89,50.14,520.64,49.63z M522.2,31.85c-0.65,0.27-1.24,0.65-1.76,1.16c-0.52,0.52-0.96,1.16-1.32,1.9
					c-0.36,0.75-0.61,1.61-0.75,2.59h11.37v-0.18c0-0.65-0.12-1.35-0.37-2.1c-0.25-0.75-0.59-1.4-1.04-1.94s-1-0.99-1.67-1.33
					c-0.67-0.34-1.47-0.51-2.39-0.51C523.54,31.45,522.85,31.58,522.2,31.85z"/>
				<path class="st2" d="M557.39,46.93V50h-17.52V21.56h3.61v25.37H557.39z"/>
				<path class="st2" d="M574.78,28.87v18.01h6.89V50h-17.7v-3.12h7.19V32.01h-7.19v-3.14H574.78z M570.84,22.44
					c0.1-0.27,0.25-0.51,0.46-0.7c0.17-0.17,0.39-0.3,0.65-0.4s0.57-0.15,0.91-0.15s0.64,0.05,0.9,0.15s0.48,0.23,0.64,0.4
					c0.21,0.18,0.36,0.41,0.47,0.68s0.16,0.57,0.16,0.9c0,0.59-0.18,1.07-0.55,1.46s-0.91,0.59-1.62,0.59
					c-0.73,0-1.27-0.2-1.63-0.59s-0.54-0.88-0.54-1.46C570.69,23.01,570.74,22.71,570.84,22.44z"/>
				<path class="st2" d="M601.2,43.23c-0.17-0.34-0.46-0.66-0.86-0.95c-0.4-0.29-0.94-0.55-1.6-0.79c-0.66-0.24-1.49-0.46-2.48-0.65
					c-1.21-0.25-2.31-0.55-3.31-0.9s-1.85-0.77-2.55-1.27c-0.72-0.48-1.27-1.05-1.66-1.71c-0.39-0.66-0.59-1.42-0.59-2.29
					c0-0.86,0.2-1.66,0.61-2.41c0.4-0.75,0.97-1.4,1.7-1.96c0.73-0.56,1.6-1,2.61-1.33c1.01-0.33,2.12-0.49,3.33-0.49
					c1.3,0,2.47,0.17,3.52,0.51c1.04,0.34,1.93,0.81,2.66,1.41c0.73,0.6,1.29,1.3,1.69,2.1s0.6,1.66,0.6,2.59h-3.61
					c0-0.46-0.12-0.9-0.35-1.34c-0.23-0.44-0.56-0.82-0.98-1.16c-0.42-0.34-0.92-0.61-1.51-0.82c-0.59-0.21-1.26-0.31-2-0.31
					c-0.77,0-1.44,0.08-2.02,0.25c-0.58,0.17-1.06,0.4-1.44,0.68c-0.39,0.29-0.68,0.62-0.88,1c-0.2,0.38-0.29,0.77-0.29,1.17
					c0,0.42,0.08,0.79,0.23,1.11c0.16,0.33,0.43,0.62,0.82,0.88c0.38,0.26,0.89,0.5,1.53,0.7c0.64,0.21,1.46,0.41,2.45,0.61
					c1.3,0.27,2.47,0.59,3.5,0.95c1.03,0.36,1.89,0.78,2.6,1.28c0.7,0.51,1.24,1.09,1.61,1.76s0.56,1.43,0.56,2.3
					c0,0.94-0.21,1.79-0.63,2.56c-0.42,0.77-1.01,1.43-1.77,1.97s-1.66,0.97-2.71,1.27s-2.21,0.45-3.46,0.45
					c-1.43,0-2.71-0.19-3.83-0.58s-2.06-0.9-2.83-1.53c-0.78-0.62-1.38-1.35-1.79-2.19c-0.41-0.83-0.62-1.7-0.62-2.6h3.61
					c0.05,0.74,0.25,1.37,0.6,1.88s0.78,0.92,1.3,1.23c0.51,0.31,1.07,0.53,1.7,0.66c0.62,0.13,1.24,0.2,1.86,0.2
					c0.96,0,1.8-0.11,2.52-0.34c0.72-0.23,1.28-0.54,1.68-0.95c0.25-0.25,0.44-0.52,0.57-0.82c0.13-0.3,0.2-0.62,0.2-0.96
					C601.46,43.96,601.37,43.58,601.2,43.23z"/>
				<path class="st2" d="M619.97,28.87h8.05v2.79h-8.05v11.48c0,0.82,0.1,1.5,0.31,2.03c0.21,0.53,0.5,0.96,0.86,1.27
					c0.36,0.33,0.78,0.55,1.26,0.68c0.48,0.13,0.98,0.2,1.51,0.2c0.39,0,0.79-0.02,1.21-0.07c0.42-0.05,0.83-0.1,1.23-0.17
					c0.39-0.06,0.76-0.13,1.1-0.21c0.34-0.07,0.63-0.13,0.85-0.19l0.51,2.56c-0.3,0.18-0.66,0.34-1.09,0.48s-0.9,0.25-1.41,0.34
					c-0.51,0.1-1.04,0.18-1.61,0.23c-0.57,0.05-1.13,0.08-1.69,0.08c-0.94,0-1.81-0.13-2.63-0.4s-1.52-0.69-2.12-1.28
					c-0.6-0.57-1.07-1.32-1.42-2.24s-0.52-2.03-0.52-3.33V31.66h-5.55v-2.79h5.55v-5.12h3.63V28.87z"/>
			</g>
		</g>
	</g>
</g>
</svg>
