<?xml version="1.0" encoding="utf-8"?>
<!-- Generator: Adobe Illustrator 24.1.2, SVG Export Plug-In . SVG Version: 6.00 Build 0)  -->
<svg version="1.1" baseProfile="basic" id="Layer_1"
	 xmlns="http://www.w3.org/2000/svg" xmlns:xlink="http://www.w3.org/1999/xlink" x="0px" y="0px" viewBox="0 0 1060 70"
	 xml:space="preserve">
<linearGradient id="SVGID_1_" gradientUnits="userSpaceOnUse" x1="-0.5" y1="35" x2="1059.5" y2="35">
	<stop  offset="0" style="stop-color:#000000;stop-opacity:0"/>
	<stop  offset="0.5" style="stop-color:#000000"/>
	<stop  offset="1" style="stop-color:#000000;stop-opacity:0"/>
</linearGradient>
<rect x="-0.5" fill="url(#SVGID_1_)" width="1060" height="70"/>
<g>
	<path fill="#FFFFFF" d="M373.82,16.24h9.48l10.01,24.43h0.43l10.01-24.43h9.48V52.6h-7.46V28.93h-0.3l-9.41,23.49h-5.08
		l-9.41-23.58h-0.3V52.6h-7.46V16.24z"/>
	<path fill="#FFFFFF" d="M424.09,62.78c-0.96,0-1.86-0.07-2.69-0.22c-0.83-0.15-1.52-0.33-2.07-0.54l1.7-5.66
		c1.34,0.42,2.46,0.52,3.38,0.33c0.92-0.2,1.64-0.91,2.17-2.14l0.44-1.15l-9.78-28.05h7.96l5.65,20.03h0.28l5.7-20.03l8.01,0.04
		l-10.6,30.19c-0.51,1.46-1.2,2.73-2.07,3.81s-1.97,1.92-3.29,2.52C427.56,62.48,425.96,62.78,424.09,62.78z"/>
	<path fill="#FFFFFF" d="M451.72,52.6h-8.24l12.55-36.36h9.91l12.54,36.36h-8.24l-9.11-28.05h-0.28L451.72,52.6z M451.2,38.31h19.46
		v6H451.2V38.31z"/>
	<path fill="#FFFFFF" d="M490.26,36.83V52.6h-7.56V25.33h7.21v4.81h0.32c0.6-1.59,1.62-2.84,3.04-3.77
		c1.42-0.93,3.14-1.39,5.17-1.39c1.89,0,3.54,0.41,4.95,1.24c1.41,0.83,2.5,2.01,3.29,3.54c0.78,1.53,1.17,3.36,1.17,5.48V52.6
		h-7.56V36.59c0.01-1.67-0.42-2.97-1.28-3.92c-0.86-0.94-2.05-1.41-3.57-1.41c-1.02,0-1.92,0.22-2.69,0.66
		c-0.78,0.44-1.38,1.07-1.81,1.91C490.5,34.66,490.28,35.66,490.26,36.83z"/>
	<path fill="#FFFFFF" d="M517.61,21.81c-1.13,0-2.09-0.38-2.89-1.13c-0.8-0.75-1.21-1.65-1.21-2.71c0-1.04,0.4-1.94,1.21-2.69
		c0.8-0.75,1.76-1.13,2.88-1.13c1.14,0,2.1,0.38,2.9,1.13c0.8,0.75,1.2,1.65,1.2,2.69c0,1.05-0.4,1.96-1.2,2.71
		C519.69,21.44,518.73,21.81,517.61,21.81z M513.79,52.6V25.33h7.56V52.6H513.79z"/>
	<path fill="#FFFFFF" d="M527.39,52.6V25.33h7.21v4.81h0.32c0.57-1.6,1.52-2.86,2.84-3.78c1.33-0.92,2.91-1.39,4.76-1.39
		c1.87,0,3.46,0.46,4.78,1.39s2.19,2.19,2.63,3.77h0.28c0.56-1.56,1.57-2.81,3.03-3.76s3.19-1.41,5.19-1.41
		c2.54,0,4.61,0.81,6.21,2.42c1.59,1.62,2.39,3.9,2.39,6.86V52.6h-7.55V35.75c0-1.51-0.4-2.65-1.21-3.41
		c-0.8-0.76-1.81-1.14-3.02-1.14c-1.37,0-2.44,0.43-3.21,1.3c-0.77,0.87-1.15,2.02-1.15,3.44V52.6h-7.33V35.59
		c0-1.34-0.38-2.4-1.15-3.2s-1.77-1.19-3.01-1.19c-0.84,0-1.59,0.21-2.26,0.63c-0.67,0.42-1.2,1.01-1.59,1.76
		c-0.39,0.75-0.59,1.63-0.59,2.64V52.6H527.39z"/>
	<path fill="#FFFFFF" d="M585.42,53.13c-2.81,0-5.22-0.57-7.24-1.71c-2.02-1.14-3.57-2.76-4.66-4.87c-1.09-2.1-1.63-4.59-1.63-7.47
		c0-2.81,0.54-5.27,1.63-7.39s2.63-3.77,4.61-4.95s4.31-1.78,6.99-1.78c1.8,0,3.48,0.29,5.03,0.86s2.92,1.44,4.08,2.58
		s2.07,2.59,2.73,4.32c0.65,1.73,0.98,3.76,0.98,6.08v2.08H574.9v-4.69h15.91c0-1.09-0.24-2.05-0.71-2.89
		c-0.47-0.84-1.13-1.5-1.96-1.98c-0.83-0.48-1.8-0.72-2.9-0.72c-1.15,0-2.16,0.26-3.04,0.79s-1.57,1.23-2.07,2.11
		s-0.75,1.86-0.76,2.94v4.46c0,1.35,0.25,2.52,0.75,3.5c0.5,0.98,1.22,1.74,2.14,2.27c0.92,0.53,2.02,0.8,3.28,0.8
		c0.84,0,1.61-0.12,2.31-0.36c0.7-0.24,1.3-0.59,1.79-1.07s0.88-1.05,1.14-1.74l7,0.46c-0.35,1.68-1.08,3.15-2.17,4.39
		s-2.5,2.22-4.23,2.91S587.67,53.13,585.42,53.13z"/>
	<path fill="#FFFFFF" d="M603.01,52.6V16.24h7.69v30.03h15.59v6.34H603.01z"/>
	<path fill="#FFFFFF" d="M635.06,21.81c-1.13,0-2.09-0.38-2.89-1.13c-0.8-0.75-1.21-1.65-1.21-2.71c0-1.04,0.4-1.94,1.21-2.69
		c0.8-0.75,1.76-1.13,2.88-1.13c1.14,0,2.1,0.38,2.9,1.13c0.8,0.75,1.2,1.65,1.2,2.69c0,1.05-0.4,1.96-1.2,2.71
		C637.15,21.44,636.18,21.81,635.06,21.81z M631.24,52.6V25.33h7.56V52.6H631.24z"/>
	<path fill="#FFFFFF" d="M667.54,33.1l-6.92,0.43c-0.12-0.59-0.37-1.13-0.76-1.61s-0.9-0.86-1.54-1.15
		c-0.63-0.29-1.39-0.43-2.26-0.43c-1.17,0-2.16,0.25-2.96,0.74c-0.81,0.49-1.21,1.14-1.21,1.96c0,0.65,0.26,1.2,0.78,1.65
		c0.52,0.45,1.41,0.81,2.68,1.08l4.94,0.99c2.65,0.54,4.63,1.42,5.93,2.63c1.3,1.21,1.95,2.79,1.95,4.76c0,1.79-0.52,3.36-1.57,4.71
		c-1.05,1.35-2.48,2.4-4.3,3.15c-1.82,0.75-3.91,1.13-6.28,1.13c-3.61,0-6.48-0.75-8.62-2.26c-2.14-1.51-3.39-3.57-3.75-6.17
		l7.44-0.39c0.22,1.1,0.77,1.94,1.63,2.51c0.86,0.57,1.97,0.86,3.32,0.86c1.33,0,2.39-0.26,3.21-0.77c0.81-0.52,1.22-1.18,1.23-2
		c-0.01-0.69-0.3-1.25-0.87-1.7c-0.57-0.44-1.44-0.78-2.63-1.02l-4.72-0.94c-2.66-0.53-4.64-1.46-5.94-2.77
		c-1.3-1.31-1.94-2.99-1.94-5.02c0-1.75,0.48-3.26,1.43-4.53c0.95-1.27,2.3-2.24,4.03-2.93c1.73-0.69,3.77-1.03,6.1-1.03
		c3.44,0,6.16,0.73,8.14,2.18S667.2,30.6,667.54,33.1z"/>
	<path fill="#FFFFFF" d="M687.44,25.33v5.68h-16.42v-5.68H687.44z M674.74,18.79h7.56v25.43c0,0.7,0.11,1.24,0.32,1.63
		s0.51,0.65,0.9,0.81c0.38,0.15,0.83,0.23,1.34,0.23c0.35,0,0.71-0.03,1.07-0.1c0.35-0.06,0.63-0.12,0.82-0.15l1.19,5.63
		c-0.38,0.12-0.91,0.26-1.6,0.42c-0.69,0.16-1.52,0.26-2.5,0.29c-1.82,0.07-3.42-0.17-4.79-0.73c-1.37-0.56-2.43-1.42-3.19-2.59
		c-0.76-1.17-1.13-2.65-1.12-4.44V18.79z"/>
</g>
</svg>
