<?xml version="1.0" encoding="utf-8"?>
<!-- Generator: Adobe Illustrator 27.1.1, SVG Export Plug-In . SVG Version: 6.00 Build 0)  -->
<svg version="1.1" id="Layer_1" xmlns="http://www.w3.org/2000/svg" xmlns:xlink="http://www.w3.org/1999/xlink" x="0px" y="0px"
	 viewBox="0 0 408 80" style="enable-background:new 0 0 408 80;" xml:space="preserve">
<style type="text/css">
	.st0{fill:#0095FF;}
	.st1{fill:#FFFFFF;}
</style>
<path class="st0" d="M398,80H10C4.5,80,0,75.5,0,70V10C0,4.5,4.5,0,10,0h388c5.5,0,10,4.5,10,10v60C408,75.5,403.5,80,398,80z"/>
<g>
	<g>
		<path class="st1" d="M98.2,54.6V32.7h3.2v3.4h0.3c0.5-1.2,1.2-2.1,2.2-2.7c1-0.7,2.2-1,3.7-1c1.4,0,2.6,0.3,3.6,1
			c1,0.7,1.7,1.6,2.2,2.7h0.2c0.6-1.1,1.4-2,2.5-2.7c1.1-0.7,2.4-1,4-1c2,0,3.6,0.6,4.8,1.8c1.2,1.2,1.9,3.1,1.9,5.7v14.6h-3.4V39.9
			c0-1.6-0.4-2.8-1.3-3.5c-0.9-0.7-1.9-1-3.1-1c-1.5,0-2.7,0.5-3.5,1.4c-0.8,0.9-1.3,2.1-1.3,3.5v14.2h-3.4v-15c0-1.2-0.4-2.2-1.2-3
			c-0.8-0.8-1.8-1.1-3.1-1.1c-0.9,0-1.7,0.2-2.4,0.7c-0.8,0.5-1.4,1.1-1.8,1.9c-0.5,0.8-0.7,1.8-0.7,2.8v13.6H98.2z"/>
		<path class="st1" d="M133.3,62.7c-0.6,0-1.1,0-1.5-0.1c-0.4-0.1-0.8-0.2-0.9-0.3l0.9-2.9l0.3,0.1c1.1,0.3,2.1,0.2,2.8-0.2
			s1.4-1.3,2-2.9l0.6-1.7l-8-22h3.6l6,17.4h0.2l6-17.4h3.6l-9.3,25c-0.4,1.1-0.9,2.1-1.5,2.8c-0.6,0.7-1.3,1.3-2.1,1.7
			C135.3,62.5,134.3,62.7,133.3,62.7z"/>
		<path class="st1" d="M160.7,54.6V25.4h11.5c2.2,0,4.1,0.4,5.6,1.3c1.6,0.8,2.7,2,3.6,3.5c0.8,1.5,1.2,3.2,1.2,5.1
			c0,1.9-0.4,3.6-1.2,5.1c-0.8,1.5-2,2.6-3.6,3.4c-1.6,0.8-3.5,1.2-5.7,1.2h-7.3v-4.9h6.3c1.2,0,2.2-0.2,2.9-0.6
			c0.8-0.4,1.4-1,1.7-1.7c0.4-0.7,0.6-1.6,0.6-2.5c0-1-0.2-1.8-0.6-2.5c-0.4-0.7-1-1.3-1.7-1.7c-0.8-0.4-1.8-0.6-2.9-0.6h-4.2v24.1
			H160.7z"/>
		<path class="st1" d="M198.3,54.9c-2.6,0-4.9-0.6-6.9-1.8c-2-1.2-3.7-2.9-4.8-5.1c-1.2-2.2-1.8-4.9-1.8-8.1c0-3.2,0.6-5.9,1.8-8.1
			c1.2-2.2,2.8-3.9,4.9-5.1c2.1-1.2,4.4-1.7,6.9-1.7c1.7,0,3.3,0.2,4.7,0.7c1.4,0.5,2.7,1.2,3.8,2.1c1.1,0.9,2,2,2.7,3.3
			s1.2,2.8,1.3,4.5h-6.2c-0.1-0.8-0.3-1.5-0.7-2.1c-0.3-0.6-0.8-1.2-1.3-1.6c-0.6-0.4-1.2-0.8-1.9-1c-0.7-0.2-1.5-0.4-2.3-0.4
			c-1.5,0-2.8,0.4-3.9,1.1c-1.1,0.7-2,1.8-2.6,3.2c-0.6,1.4-0.9,3.1-0.9,5.2c0,2.1,0.3,3.8,0.9,5.2c0.6,1.4,1.5,2.5,2.6,3.2
			c1.1,0.7,2.4,1.1,3.9,1.1c0.8,0,1.6-0.1,2.3-0.3c0.7-0.2,1.3-0.5,1.9-1c0.5-0.4,1-0.9,1.4-1.5s0.6-1.3,0.8-2.1h6.2
			c-0.2,1.3-0.5,2.6-1.2,3.9c-0.6,1.2-1.5,2.3-2.6,3.3c-1.1,1-2.4,1.7-3.8,2.3S200.1,54.9,198.3,54.9z"/>
		<path class="st1" d="M222,54.6V25.4h11.6c2.1,0,3.9,0.3,5.4,1c1.4,0.6,2.5,1.5,3.2,2.6c0.7,1.1,1.1,2.4,1.1,3.9
			c0,1.1-0.2,2.1-0.7,3s-1.1,1.6-1.9,2.1s-1.7,0.9-2.7,1.2v0.3c1.1,0.1,2.1,0.4,3.1,0.9c1,0.6,1.8,1.4,2.4,2.4s0.9,2.3,0.9,3.7
			c0,1.5-0.4,2.9-1.1,4.1c-0.8,1.2-1.9,2.2-3.4,2.9c-1.5,0.7-3.3,1-5.5,1H222z M228.1,37.6h4.6c0.8,0,1.6-0.1,2.3-0.4
			c0.7-0.3,1.2-0.7,1.6-1.3c0.4-0.6,0.6-1.2,0.6-2c0-1-0.4-1.9-1.1-2.5s-1.8-1-3.2-1h-4.7V37.6z M228.1,49.5h5c1.7,0,3-0.3,3.7-1
			s1.2-1.5,1.2-2.6c0-0.8-0.2-1.5-0.6-2.1c-0.4-0.6-0.9-1.1-1.7-1.5s-1.6-0.5-2.6-0.5h-5.2V49.5z"/>
		<path class="st1" d="M261,45.3V32.7h6v21.8h-5.8v-4H261c-0.5,1.3-1.3,2.3-2.4,3.1c-1.1,0.8-2.5,1.2-4.2,1.2c-1.5,0-2.7-0.3-3.9-1
			c-1.1-0.7-2-1.6-2.6-2.8c-0.6-1.2-0.9-2.7-0.9-4.4V32.7h6v12.9c0,1.3,0.3,2.3,1,3c0.7,0.7,1.6,1.1,2.8,1.1c0.7,0,1.4-0.2,2-0.5
			s1.1-0.8,1.5-1.5S261,46.2,261,45.3z"/>
		<path class="st1" d="M273.6,29.9c-0.9,0-1.7-0.3-2.3-0.9c-0.6-0.6-1-1.3-1-2.2c0-0.8,0.3-1.6,1-2.2c0.6-0.6,1.4-0.9,2.3-0.9
			c0.9,0,1.7,0.3,2.3,0.9c0.6,0.6,1,1.3,1,2.2c0,0.8-0.3,1.6-1,2.2C275.3,29.6,274.5,29.9,273.6,29.9z M270.6,54.6V32.7h6v21.8
			H270.6z"/>
		<path class="st1" d="M286.2,25.4v29.1h-6V25.4H286.2z"/>
		<path class="st1" d="M297.7,54.9c-1.7,0-3.2-0.4-4.5-1.3s-2.4-2.1-3.2-3.8c-0.8-1.7-1.2-3.7-1.2-6.1c0-2.5,0.4-4.6,1.2-6.2
			c0.8-1.7,1.9-2.9,3.2-3.7c1.3-0.8,2.8-1.2,4.4-1.2c1.2,0,2.2,0.2,3.1,0.6s1.5,0.9,2,1.5c0.5,0.6,0.9,1.2,1.2,1.8h0.2v-11h6.1v29.1
			h-6v-3.5h-0.3c-0.3,0.6-0.7,1.2-1.2,1.8c-0.5,0.6-1.2,1.1-2,1.5S298.9,54.9,297.7,54.9z M299.6,50.1c1,0,1.8-0.3,2.5-0.8
			c0.7-0.5,1.2-1.3,1.6-2.3c0.4-1,0.5-2.1,0.5-3.4c0-1.3-0.2-2.4-0.5-3.4s-0.9-1.7-1.6-2.2s-1.5-0.8-2.5-0.8c-1,0-1.8,0.3-2.5,0.8
			s-1.2,1.3-1.5,2.3s-0.5,2.1-0.5,3.3c0,1.3,0.2,2.4,0.5,3.3c0.4,1,0.9,1.7,1.6,2.3S298.7,50.1,299.6,50.1z"/>
	</g>
</g>
</svg>
