<?xml version="1.0" encoding="utf-8"?>
<!-- Generator: Adobe Illustrator 27.1.1, SVG Export Plug-In . SVG Version: 6.00 Build 0)  -->
<svg version="1.1" id="Layer_1" xmlns="http://www.w3.org/2000/svg" xmlns:xlink="http://www.w3.org/1999/xlink" x="0px" y="0px"
	 viewBox="0 0 408 80" style="enable-background:new 0 0 408 80;" xml:space="preserve">
<style type="text/css">
	.st0{fill:#0095FF;}
	.st1{fill:#FFFFFF;}
</style>
<path class="st0" d="M398,80H10C4.5,80,0,75.5,0,70V10C0,4.5,4.5,0,10,0h388c5.5,0,10,4.5,10,10v60C408,75.5,403.5,80,398,80z"/>
<g>
	<g>
		<path class="st1" d="M63.9,54.6V32.7h3.2v3.4h0.3c0.5-1.2,1.2-2.1,2.2-2.7c1-0.7,2.2-1,3.7-1c1.4,0,2.6,0.3,3.6,1
			c1,0.7,1.7,1.6,2.2,2.7h0.2c0.6-1.1,1.4-2,2.5-2.7c1.1-0.7,2.4-1,4-1c2,0,3.6,0.6,4.8,1.8c1.2,1.2,1.9,3.1,1.9,5.7v14.6h-3.4V39.9
			c0-1.6-0.4-2.8-1.3-3.5c-0.9-0.7-1.9-1-3.1-1c-1.5,0-2.7,0.5-3.5,1.4c-0.8,0.9-1.3,2.1-1.3,3.5v14.2h-3.4v-15c0-1.2-0.4-2.2-1.2-3
			c-0.8-0.8-1.8-1.1-3.1-1.1c-0.9,0-1.7,0.2-2.4,0.7c-0.8,0.5-1.4,1.1-1.8,1.9c-0.5,0.8-0.7,1.8-0.7,2.8v13.6H63.9z"/>
		<path class="st1" d="M98.9,62.7c-0.6,0-1.1,0-1.5-0.1c-0.4-0.1-0.8-0.2-0.9-0.3l0.9-2.9l0.3,0.1c1.1,0.3,2.1,0.2,2.8-0.2
			s1.4-1.3,2-2.9l0.6-1.7l-8-22h3.6l6,17.4h0.2l6-17.4h3.6l-9.3,25c-0.4,1.1-0.9,2.1-1.5,2.8c-0.6,0.7-1.3,1.3-2.1,1.7
			C100.9,62.5,100,62.7,98.9,62.7z"/>
		<path class="st1" d="M137.1,55c-2.3,0-4.4-0.4-6.1-1.1s-3.1-1.8-4.1-3.2c-1-1.4-1.5-3.2-1.5-5.3h5.9c0.1,1,0.4,1.8,0.9,2.4
			c0.5,0.7,1.2,1.1,2,1.5c0.8,0.3,1.8,0.5,2.9,0.5c1,0,1.9-0.1,2.7-0.4c0.8-0.3,1.4-0.7,1.8-1.3c0.4-0.5,0.6-1.2,0.6-1.9
			c0-0.7-0.2-1.2-0.6-1.6c-0.4-0.4-0.9-0.8-1.7-1.1c-0.7-0.3-1.6-0.6-2.7-0.8l-3.2-0.8c-2.4-0.6-4.4-1.5-5.8-2.8
			c-1.4-1.3-2.1-3-2.1-5.1c0-1.8,0.5-3.3,1.4-4.6c1-1.3,2.3-2.4,3.9-3.1c1.7-0.7,3.6-1.1,5.7-1.1c2.2,0,4,0.4,5.7,1.1
			c1.6,0.7,2.9,1.8,3.8,3.1c0.9,1.3,1.4,2.8,1.4,4.6H142c-0.1-1.1-0.6-2-1.5-2.7c-0.9-0.6-2-1-3.5-1c-1,0-1.8,0.1-2.5,0.4
			c-0.7,0.3-1.2,0.7-1.6,1.2c-0.4,0.5-0.5,1.1-0.5,1.7c0,0.7,0.2,1.2,0.6,1.7c0.4,0.5,1,0.8,1.7,1.1c0.7,0.3,1.5,0.5,2.3,0.7
			l2.6,0.6c1.3,0.3,2.4,0.7,3.5,1.1c1.1,0.5,2,1.1,2.8,1.7c0.8,0.7,1.4,1.5,1.8,2.4c0.4,0.9,0.6,2,0.6,3.2c0,1.8-0.4,3.3-1.3,4.6
			c-0.9,1.3-2.2,2.3-3.9,3C141.5,54.6,139.4,55,137.1,55z"/>
		<path class="st1" d="M161,55c-2.2,0-4.2-0.5-5.8-1.4c-1.6-0.9-2.9-2.2-3.7-3.9c-0.9-1.7-1.3-3.7-1.3-6c0-2.2,0.4-4.2,1.3-5.9
			c0.9-1.7,2.1-3,3.7-4c1.6-1,3.4-1.4,5.6-1.4c1.4,0,2.8,0.2,4,0.7c1.2,0.5,2.3,1.2,3.3,2.1s1.7,2.1,2.2,3.5c0.5,1.4,0.8,3,0.8,4.9
			v1.6h-18.4v-3.7h15.5l-2.8,1c0-1.1-0.2-2.1-0.5-2.9c-0.3-0.8-0.8-1.5-1.5-1.9c-0.7-0.4-1.5-0.7-2.5-0.7c-1,0-1.8,0.2-2.5,0.7
			c-0.7,0.5-1.2,1.1-1.6,1.9c-0.4,0.8-0.5,1.7-0.5,2.7v2.6c0,1.2,0.2,2.2,0.6,3c0.4,0.8,1,1.5,1.7,1.9c0.7,0.4,1.6,0.7,2.6,0.7
			c0.7,0,1.3-0.1,1.8-0.3s1-0.5,1.4-0.9c0.4-0.4,0.7-0.8,0.9-1.4l5.6,0.4c-0.3,1.3-0.8,2.5-1.7,3.5c-0.9,1-2,1.8-3.3,2.3
			C164.4,54.7,162.8,55,161,55z"/>
		<path class="st1" d="M173.6,54.6V32.7h5.8v3.8h0.2c0.4-1.4,1.1-2.4,2-3.1c0.9-0.7,2-1,3.2-1c0.3,0,0.6,0,1,0
			c0.3,0,0.7,0.1,0.9,0.2V38c-0.3-0.1-0.7-0.2-1.2-0.2c-0.5-0.1-1-0.1-1.4-0.1c-0.9,0-1.7,0.2-2.4,0.6c-0.7,0.4-1.3,0.9-1.7,1.6
			c-0.4,0.7-0.6,1.5-0.6,2.4v12.3H173.6z"/>
		<path class="st1" d="M208.9,32.7l-7.6,21.8h-6.8l-7.6-21.8h6.4l4.6,15.6h0.2l4.5-15.6H208.9z"/>
		<path class="st1" d="M220.7,55c-2.2,0-4.2-0.5-5.8-1.4c-1.6-0.9-2.9-2.2-3.7-3.9c-0.9-1.7-1.3-3.7-1.3-6c0-2.2,0.4-4.2,1.3-5.9
			c0.9-1.7,2.1-3,3.7-4c1.6-1,3.4-1.4,5.6-1.4c1.4,0,2.8,0.2,4,0.7c1.2,0.5,2.3,1.2,3.3,2.1s1.7,2.1,2.2,3.5s0.8,3,0.8,4.9v1.6
			h-18.4v-3.7h15.5l-2.8,1c0-1.1-0.2-2.1-0.5-2.9s-0.8-1.5-1.5-1.9s-1.5-0.7-2.5-0.7s-1.8,0.2-2.5,0.7c-0.7,0.5-1.2,1.1-1.6,1.9
			s-0.5,1.7-0.5,2.7v2.6c0,1.2,0.2,2.2,0.6,3s1,1.5,1.7,1.9s1.6,0.7,2.6,0.7c0.7,0,1.3-0.1,1.8-0.3s1-0.5,1.4-0.9
			c0.4-0.4,0.7-0.8,0.9-1.4l5.6,0.4c-0.3,1.3-0.8,2.5-1.7,3.5s-2,1.8-3.3,2.3C224.1,54.7,222.5,55,220.7,55z"/>
		<path class="st1" d="M233.3,54.6V32.7h5.8v3.8h0.2c0.4-1.4,1.1-2.4,2-3.1c0.9-0.7,2-1,3.2-1c0.3,0,0.6,0,1,0
			c0.3,0,0.7,0.1,0.9,0.2V38c-0.3-0.1-0.7-0.2-1.2-0.2s-1-0.1-1.4-0.1c-0.9,0-1.7,0.2-2.4,0.6c-0.7,0.4-1.3,0.9-1.7,1.6
			s-0.6,1.5-0.6,2.4v12.3H233.3z"/>
		<path class="st1" d="M256.4,54.6V25.4H268c2.1,0,3.9,0.3,5.4,1c1.4,0.6,2.5,1.5,3.2,2.6c0.7,1.1,1.1,2.4,1.1,3.9
			c0,1.1-0.2,2.1-0.7,3s-1.1,1.6-1.9,2.1s-1.7,0.9-2.7,1.2v0.3c1.1,0.1,2.1,0.4,3.1,0.9c1,0.6,1.8,1.4,2.4,2.4s0.9,2.3,0.9,3.7
			c0,1.5-0.4,2.9-1.1,4.1c-0.8,1.2-1.9,2.2-3.4,2.9c-1.5,0.7-3.3,1-5.5,1H256.4z M262.5,37.6h4.6c0.8,0,1.6-0.1,2.3-0.4
			c0.7-0.3,1.2-0.7,1.6-1.3c0.4-0.6,0.6-1.2,0.6-2c0-1-0.4-1.9-1.1-2.5s-1.8-1-3.2-1h-4.7V37.6z M262.5,49.5h5c1.7,0,3-0.3,3.7-1
			s1.2-1.5,1.2-2.6c0-0.8-0.2-1.5-0.6-2.1c-0.4-0.6-0.9-1.1-1.7-1.5s-1.6-0.5-2.6-0.5h-5.2V49.5z"/>
		<path class="st1" d="M295.4,45.3V32.7h6v21.8h-5.8v-4h-0.2c-0.5,1.3-1.3,2.3-2.4,3.1c-1.1,0.8-2.5,1.2-4.2,1.2
			c-1.5,0-2.7-0.3-3.9-1c-1.1-0.7-2-1.6-2.6-2.8c-0.6-1.2-0.9-2.7-0.9-4.4V32.7h6v12.9c0,1.3,0.3,2.3,1,3c0.7,0.7,1.6,1.1,2.8,1.1
			c0.7,0,1.4-0.2,2-0.5s1.1-0.8,1.5-1.5S295.4,46.2,295.4,45.3z"/>
		<path class="st1" d="M308,29.9c-0.9,0-1.7-0.3-2.3-0.9c-0.6-0.6-1-1.3-1-2.2c0-0.8,0.3-1.6,1-2.2c0.6-0.6,1.4-0.9,2.3-0.9
			c0.9,0,1.7,0.3,2.3,0.9c0.6,0.6,1,1.3,1,2.2c0,0.8-0.3,1.6-1,2.2C309.7,29.6,308.9,29.9,308,29.9z M305,54.6V32.7h6v21.8H305z"/>
		<path class="st1" d="M320.6,25.4v29.1h-6V25.4H320.6z"/>
		<path class="st1" d="M332.1,54.9c-1.7,0-3.2-0.4-4.5-1.3s-2.4-2.1-3.2-3.8c-0.8-1.7-1.2-3.7-1.2-6.1c0-2.5,0.4-4.6,1.2-6.2
			c0.8-1.7,1.9-2.9,3.2-3.7c1.3-0.8,2.8-1.2,4.4-1.2c1.2,0,2.2,0.2,3.1,0.6s1.5,0.9,2,1.5c0.5,0.6,0.9,1.2,1.2,1.8h0.2v-11h6.1v29.1
			h-6v-3.5h-0.3c-0.3,0.6-0.7,1.2-1.2,1.8c-0.5,0.6-1.2,1.1-2,1.5S333.3,54.9,332.1,54.9z M334,50.1c1,0,1.8-0.3,2.5-0.8
			c0.7-0.5,1.2-1.3,1.6-2.3c0.4-1,0.5-2.1,0.5-3.4c0-1.3-0.2-2.4-0.5-3.4s-0.9-1.7-1.6-2.2s-1.5-0.8-2.5-0.8c-1,0-1.8,0.3-2.5,0.8
			s-1.2,1.3-1.5,2.3s-0.5,2.1-0.5,3.3c0,1.3,0.2,2.4,0.5,3.3c0.4,1,0.9,1.7,1.6,2.3S333,50.1,334,50.1z"/>
	</g>
</g>
</svg>
